<svg version="1.1" id="Layer_1" xmlns="http://www.w3.org/2000/svg" xmlns:xlink="http://www.w3.org/1999/xlink" x="0px" y="0px"
	 width="100%" viewBox="0 0 62 60" enable-background="new 0 0 62 60" xml:space="preserve">
<path fill="#F7F8F8" opacity="1.000000" stroke="none" 
	d="
M1.000000,40.000000 
	C1.000000,27.645771 1.000000,15.291543 1.223918,2.365842 
	C1.732673,1.599638 1.916727,1.334848 2.000000,1.000000 
	C21.687561,1.000000 41.375122,1.000000 61.633347,1.223656 
	C62.405720,1.723150 62.671051,1.907380 63.000000,2.000000 
	C63.000000,21.573685 63.000000,41.147369 63.000000,61.000000 
	C51.980671,61.000000 40.958992,61.000000 29.468584,60.563431 
	C28.967880,58.671970 28.935907,57.217079 28.973907,55.450638 
	C29.269482,54.781357 29.495089,54.423626 29.699533,54.070282 
	C29.678373,54.074669 29.672466,54.116177 30.005257,54.108185 
	C30.907476,54.434574 31.476908,54.768955 32.215443,55.315941 
	C34.322632,55.174648 36.260712,54.820744 38.263515,54.363426 
	C38.328236,54.260006 38.710110,53.969971 39.039375,54.100128 
	C43.329674,56.604305 48.045910,56.041809 49.801186,53.257431 
	C51.136467,54.976952 52.151314,56.463284 52.946758,57.628277 
	C54.362267,56.726925 56.243359,55.929161 57.537140,54.571659 
	C58.478363,53.584080 59.281891,51.688679 58.970417,50.508495 
	C58.675884,49.392506 56.902035,48.047768 55.680065,47.941723 
	C53.874752,47.785046 51.982018,48.635639 49.839874,48.861637 
	C46.364582,48.110050 43.185532,47.228245 39.983276,47.133904 
	C38.350029,47.085789 36.675133,48.451279 34.745918,49.428093 
	C34.010712,49.516865 33.559643,49.295929 33.083984,49.207920 
	C32.389324,49.079384 31.676998,49.046303 30.628777,48.861046 
	C29.560656,47.309025 28.835958,45.868492 27.726248,43.662628 
	C26.955994,46.213005 26.552975,47.547440 26.015923,48.674114 
	C25.653408,48.173725 25.358025,48.067936 24.735186,48.020073 
	C23.941397,48.033054 23.408161,48.174953 22.556955,48.452522 
	C21.841335,49.103363 21.443687,49.618530 20.629574,50.278496 
	C18.987494,47.406864 16.482397,47.911678 14.029173,47.762634 
	C12.442801,46.626438 10.887704,45.915276 8.998297,45.166023 
	C7.776248,45.039085 6.888509,44.950245 5.999390,44.472763 
	C6.290122,40.326477 3.945739,39.795280 1.000000,40.000000 
M38.089668,29.851789 
	C30.833954,35.295021 30.150446,35.145916 25.470989,27.121986 
	C25.402887,27.005215 25.186052,26.975182 24.990553,25.980442 
	C25.088604,20.371132 25.084330,14.757486 25.321638,9.154073 
	C25.473116,5.577343 23.821253,5.440438 21.013269,6.385187 
	C21.013269,13.174988 20.793951,19.787220 21.148573,26.368528 
	C21.253273,28.311600 22.978962,30.167326 24.216127,32.708412 
	C25.743084,34.761459 28.244106,36.665611 28.585634,38.899864 
	C29.214520,43.013977 31.931023,43.668079 33.500797,44.313450 
	C35.418148,40.575897 37.205658,37.332428 38.735325,33.971600 
	C39.233147,32.877823 39.057652,31.477587 40.016975,30.226656 
	C41.034271,28.831562 42.915741,27.439987 42.921436,26.040777 
	C42.948139,19.479185 42.522541,12.910923 42.052380,6.359833 
	C42.006851,5.725442 40.544338,5.192747 40.089947,4.865312 
	C39.640892,13.490137 39.216812,21.635180 38.089668,29.851789 
M33.125446,15.440799 
	C33.125446,12.016746 33.125446,8.592692 33.125446,4.205318 
	C31.682701,5.299839 30.227306,5.878990 30.209942,6.498445 
	C30.038855,12.602667 30.106575,18.713581 30.106575,24.822599 
	C30.939611,24.832357 31.772648,24.842117 32.605686,24.851877 
	C32.785297,22.037270 32.964909,19.222664 33.125446,15.440799 
z"/>
<path fill="#F6F8F7" opacity="1.000000" stroke="none" 
	d="
M1.000000,40.468910 
	C3.945739,39.795280 6.290122,40.326477 5.584368,44.592026 
	C4.576156,48.375580 3.981585,51.651234 3.387013,54.926884 
	C3.878997,55.315388 4.370981,55.703896 4.862964,56.092403 
	C6.920664,55.089397 8.978364,54.086391 11.429255,52.925613 
	C14.439967,55.857899 17.701014,55.973362 21.040325,53.458435 
	C22.720066,54.187798 24.317543,54.550022 26.232866,54.915337 
	C27.335121,55.199684 28.119528,55.480938 28.903934,55.762192 
	C28.935907,57.217079 28.967880,58.671970 28.999928,60.563431 
	C19.750921,61.000000 10.501842,61.000000 1.000000,61.000000 
	C1.000000,54.314720 1.000000,47.626274 1.000000,40.468910 
z"/>
<path fill="#E0E0E0" opacity="1.000000" stroke="none" 
	d="
M63.000000,1.500000 
	C62.671051,1.907380 62.405720,1.723150 62.102005,1.223656 
	C62.333332,1.000000 62.666668,1.000000 63.000000,1.500000 
z"/>
<path fill="#E0E0E0" opacity="1.000000" stroke="none" 
	d="
M1.500000,1.000000 
	C1.916727,1.334848 1.732673,1.599638 1.223918,1.897185 
	C1.000000,1.666667 1.000000,1.333333 1.500000,1.000000 
z"/>
<path fill="#050812" opacity="1.000000" stroke="none" 
	d="
M39.190113,30.217516 
	C39.057652,31.477587 39.233147,32.877823 38.735325,33.971600 
	C37.205658,37.332428 35.418148,40.575897 33.500797,44.313450 
	C31.931023,43.668079 29.214520,43.013977 28.585634,38.899864 
	C28.244106,36.665611 25.743084,34.761459 24.096756,32.001648 
	C24.331135,29.831476 24.684883,28.368073 25.038633,26.904667 
	C25.186052,26.975182 25.402887,27.005215 25.470989,27.121986 
	C30.150446,35.145916 30.833954,35.295021 38.541374,29.924574 
	C38.993084,29.997358 39.190113,30.217516 39.190113,30.217516 
z"/>
<path fill="#000000" opacity="1.000000" stroke="none" 
	d="
M25.014593,26.442554 
	C24.684883,28.368073 24.331135,29.831476 23.969597,31.678982 
	C22.978962,30.167326 21.253273,28.311600 21.148573,26.368528 
	C20.793951,19.787220 21.013269,13.174988 21.013269,6.385187 
	C23.821253,5.440438 25.473116,5.577343 25.321638,9.154073 
	C25.084330,14.757486 25.088604,20.371132 25.014593,26.442554 
z"/>
<path fill="#EAEDEC" opacity="1.000000" stroke="none" 
	d="
M49.480755,53.024235 
	C48.045910,56.041809 43.329674,56.604305 38.859383,53.790604 
	C38.488117,52.912144 38.626102,52.473370 39.158653,51.951538 
	C39.966167,50.972488 40.379116,50.076496 40.525154,49.471802 
	C38.511848,49.568001 36.765453,49.372906 35.019062,49.177807 
	C36.675133,48.451279 38.350029,47.085789 39.983276,47.133904 
	C43.185532,47.228245 46.364582,48.110050 49.729256,49.145447 
	C49.763767,50.758026 49.622261,51.891132 49.480755,53.024235 
M43.608555,50.671982 
	C43.565147,51.238026 43.521744,51.804073 43.478340,52.370117 
	C44.362507,52.200378 45.246677,52.030636 47.214966,51.652771 
	C45.402584,51.096153 44.788540,50.907570 43.608555,50.671982 
z"/>
<path fill="#191C1E" opacity="1.000000" stroke="none" 
	d="
M11.036064,53.083385 
	C8.978364,54.086391 6.920664,55.089397 4.862964,56.092403 
	C4.370981,55.703896 3.878997,55.315388 3.387013,54.926884 
	C3.981585,51.651234 4.576156,48.375580 5.585749,44.980667 
	C6.888509,44.950245 7.776248,45.039085 9.243916,45.494522 
	C10.205673,47.606022 10.587503,49.350929 10.964624,51.427620 
	C10.985298,52.200729 11.010681,52.642059 11.036064,53.083385 
z"/>
<path fill="#01031A" opacity="1.000000" stroke="none" 
	d="
M38.892910,29.888790 
	C39.216812,21.635180 39.640892,13.490137 40.089947,4.865312 
	C40.544338,5.192747 42.006851,5.725442 42.052380,6.359833 
	C42.522541,12.910923 42.948139,19.479185 42.921436,26.040777 
	C42.915741,27.439987 41.034271,28.831562 39.603546,30.222086 
	C39.190113,30.217516 38.993084,29.997358 38.892910,29.888790 
z"/>
<path fill="#35393D" opacity="1.000000" stroke="none" 
	d="
M49.801186,53.257431 
	C49.622261,51.891132 49.763767,50.758026 50.015892,49.341118 
	C51.982018,48.635639 53.874752,47.785046 55.680065,47.941723 
	C56.902035,48.047768 58.675884,49.392506 58.970417,50.508495 
	C59.281891,51.688679 58.478363,53.584080 57.537140,54.571659 
	C56.243359,55.929161 54.362267,56.726925 52.946758,57.628277 
	C52.151314,56.463284 51.136467,54.976952 49.801186,53.257431 
z"/>
<path fill="#000109" opacity="1.000000" stroke="none" 
	d="
M33.134983,15.924429 
	C32.964909,19.222664 32.785297,22.037270 32.605686,24.851877 
	C31.772648,24.842117 30.939611,24.832357 30.106575,24.822599 
	C30.106575,18.713581 30.038855,12.602667 30.209942,6.498445 
	C30.227306,5.878990 31.682701,5.299839 33.125446,4.205318 
	C33.125446,8.592692 33.125446,12.016746 33.134983,15.924429 
z"/>
<path fill="#2A2D30" opacity="1.000000" stroke="none" 
	d="
M11.429255,52.925613 
	C11.010681,52.642059 10.985298,52.200729 11.290201,51.427841 
	C12.433806,50.126743 13.247127,49.157207 14.060446,48.187668 
	C16.482397,47.911678 18.987494,47.406864 20.665188,50.648247 
	C21.064196,51.612560 21.011127,52.351933 20.958061,53.091301 
	C17.701014,55.973362 14.439967,55.857899 11.429255,52.925613 
z"/>
<path fill="#8C9192" opacity="1.000000" stroke="none" 
	d="
M28.973906,55.450638 
	C28.119528,55.480938 27.335121,55.199684 26.222237,54.654327 
	C25.856131,54.046547 25.818499,53.702873 26.136295,53.236984 
	C26.316969,52.064190 26.142216,51.013611 26.014116,49.692917 
	C26.090500,49.242485 26.120228,49.062176 26.149956,48.881870 
	C26.552975,47.547440 26.955994,46.213005 27.726248,43.662628 
	C28.835958,45.868492 29.560656,47.309025 30.615814,49.140121 
	C31.299404,50.159046 31.652529,50.787415 32.052311,51.875092 
	C32.081425,53.257385 32.063881,54.180359 32.046337,55.103336 
	C31.476908,54.768955 30.907476,54.434574 30.031147,53.782944 
	C29.588625,52.830429 29.453001,52.195164 29.317377,51.559898 
	C28.980137,51.722328 28.642899,51.884754 28.305658,52.047180 
	C28.777338,52.720085 29.249016,53.392994 29.720695,54.065899 
	C29.495089,54.423626 29.269482,54.781357 28.973906,55.450638 
z"/>
<path fill="#242D32" opacity="1.000000" stroke="none" 
	d="
M32.005653,51.415779 
	C31.652529,50.787415 31.299404,50.159046 30.959240,49.251610 
	C31.676998,49.046303 32.389324,49.079384 33.083984,49.207920 
	C33.559643,49.295929 34.010712,49.516865 34.745918,49.428093 
	C36.765453,49.372906 38.511848,49.568001 40.118580,49.407784 
	C39.170521,49.465244 38.362118,49.878021 37.553719,50.290794 
	C37.957176,50.872063 38.360634,51.453327 38.764091,52.034595 
	C38.626102,52.473370 38.488117,52.912144 38.530121,53.660446 
	C38.710110,53.969971 38.328236,54.260006 38.265846,53.966869 
	C36.891396,50.851795 34.709354,50.417847 32.005653,51.415779 
z"/>
<path fill="#EAEDEC" opacity="1.000000" stroke="none" 
	d="
M32.052311,51.875092 
	C34.709354,50.417847 36.891396,50.851795 38.201126,54.070290 
	C36.260712,54.820744 34.322632,55.174648 32.215443,55.315941 
	C32.063881,54.180359 32.081425,53.257385 32.052311,51.875092 
z"/>
<path fill="#F6F8F7" opacity="1.000000" stroke="none" 
	d="
M14.029173,47.762634 
	C13.247127,49.157207 12.433806,50.126743 11.294909,51.096058 
	C10.587503,49.350929 10.205673,47.606022 9.578224,45.532616 
	C10.887704,45.915276 12.442801,46.626438 14.029173,47.762634 
z"/>
<path fill="#131617" opacity="1.000000" stroke="none" 
	d="
M25.780867,53.359203 
	C25.818499,53.702873 25.856131,54.046547 25.904388,54.651230 
	C24.317543,54.550022 22.720066,54.187798 21.040325,53.458435 
	C21.011127,52.351933 21.064196,51.612560 21.081652,50.503445 
	C21.443687,49.618530 21.841335,49.103363 22.593338,48.872917 
	C22.964739,49.438210 22.981783,49.718781 22.809866,50.240700 
	C21.631845,53.684235 23.475088,53.775719 25.780867,53.359203 
z"/>
<path fill="#EAEDEC" opacity="1.000000" stroke="none" 
	d="
M29.699535,54.070282 
	C29.249016,53.392994 28.777338,52.720085 28.305658,52.047180 
	C28.642899,51.884754 28.980137,51.722328 29.317377,51.559898 
	C29.453001,52.195164 29.588625,52.830429 29.698357,53.790936 
	C29.672466,54.116177 29.678373,54.074669 29.699535,54.070282 
z"/>
<path fill="#25292D" opacity="1.000000" stroke="none" 
	d="
M22.998829,49.999352 
	C22.981783,49.718781 22.964739,49.438210 22.911310,48.737244 
	C23.408161,48.174953 23.941397,48.033054 24.736732,48.302956 
	C24.998598,49.092163 24.998362,49.469574 24.663794,49.857880 
	C23.885918,49.912300 23.442373,49.955826 22.998829,49.999352 
z"/>
<path fill="#2A2E2F" opacity="1.000000" stroke="none" 
	d="
M24.998123,49.846981 
	C24.998362,49.469574 24.998598,49.092163 24.997288,48.431870 
	C25.358025,48.067936 25.653408,48.173725 26.015923,48.674114 
	C26.120228,49.062176 26.090500,49.242485 25.759768,49.764244 
	C25.305216,50.019451 25.151669,49.933216 24.998123,49.846981 
z"/>
<path fill="#F7F8F8" opacity="1.000000" stroke="none" 
	d="
M43.891525,50.695484 
	C44.788540,50.907570 45.402584,51.096153 47.214966,51.652771 
	C45.246677,52.030636 44.362507,52.200378 43.478340,52.370117 
	C43.521744,51.804073 43.565147,51.238026 43.891525,50.695484 
z"/>
<path fill="#F7F8F8" opacity="1.000000" stroke="none" 
	d="
M39.158653,51.951538 
	C38.360634,51.453327 37.957176,50.872063 37.553719,50.290794 
	C38.362118,49.878021 39.170521,49.465244 40.385494,49.116486 
	C40.379116,50.076496 39.966167,50.972488 39.158653,51.951538 
z"/>
<path fill="#E8EAEB" opacity="1.000000" stroke="none" 
	d="
M24.663792,49.857880 
	C25.151669,49.933216 25.305216,50.019451 25.713114,50.034363 
	C26.142216,51.013611 26.316969,52.064190 26.136295,53.236984 
	C23.475088,53.775719 21.631845,53.684235 22.809866,50.240700 
	C23.442373,49.955826 23.885918,49.912300 24.663792,49.857880 
z"/>
</svg>