<svg version="1.1" id="Layer_1" xmlns="http://www.w3.org/2000/svg" xmlns:xlink="http://www.w3.org/1999/xlink" x="0px" y="0px"
	 width="100%" viewBox="0 0 144 125" enable-background="new 0 0 144 125" xml:space="preserve">
<path fill="#FCFDFC" opacity="1.000000" stroke="none" 
	d="
M1.000000,47.000000 
	C1.000000,31.689747 1.000000,16.379492 1.000000,1.034620 
	C48.904652,1.034620 96.809334,1.034620 145.000000,1.034620 
	C145.000000,34.353683 145.000000,67.708183 144.641174,101.489311 
	C143.110611,100.791779 141.938873,99.667625 140.707275,98.486046 
	C138.990585,106.142525 139.635178,107.531181 145.000000,108.000000 
	C145.000000,108.444443 145.000000,108.888893 144.600769,109.667526 
	C142.422180,110.270653 140.642792,110.539597 138.852127,110.810242 
	C137.478149,108.328621 136.699188,104.586769 134.736603,103.800911 
	C127.998016,101.102676 120.844872,99.439735 113.356407,97.237061 
	C113.407883,96.794815 113.586494,95.260414 113.680588,94.452080 
	C111.659943,93.498154 110.108635,92.765800 108.557327,92.033447 
	C109.501373,90.471382 110.389488,88.871674 111.407364,87.359306 
	C112.202843,86.177383 113.159363,85.103851 113.640205,84.494377 
	C109.901947,83.004784 107.110023,81.892273 104.317261,80.320534 
	C104.235733,71.921562 104.155037,63.981823 104.208710,55.659637 
	C104.180779,51.184673 104.018463,47.092152 103.912094,42.551208 
	C103.851997,39.400818 103.735954,36.698845 103.716187,33.544418 
	C103.519714,28.396212 103.226967,23.700457 103.024994,18.635885 
	C100.772514,12.664623 97.778709,11.651216 92.691193,14.997927 
	C91.929939,19.433077 91.507492,23.723322 91.004333,28.475376 
	C91.028824,36.737976 91.134033,44.538769 91.198608,52.631371 
	C91.317444,53.270424 91.476913,53.617676 91.732155,54.427246 
	C91.865097,56.859646 92.065742,58.842766 91.909790,60.797436 
	C91.371117,67.548721 90.708145,74.290092 89.711937,81.032646 
	C88.205795,82.971542 87.080215,84.913033 85.919655,87.028206 
	C85.884682,87.201889 85.842987,87.553772 85.488083,87.668884 
	C81.214958,89.358734 77.296745,90.933479 73.211426,92.331940 
	C72.748260,91.947884 72.439064,91.925766 71.898422,91.976654 
	C71.094238,91.642952 70.508369,91.421906 69.937462,90.830109 
	C69.078156,85.448776 67.328033,89.296959 65.543396,90.045357 
	C63.840889,89.246552 62.478214,88.459427 61.070923,87.461914 
	C60.847973,86.985931 60.599590,86.868469 60.160297,86.596390 
	C59.576057,85.571327 59.112667,84.849007 58.980476,84.003830 
	C61.290070,84.611946 63.268471,85.342918 65.936569,86.328720 
	C65.529861,84.820442 65.575882,82.475594 64.628746,81.961914 
	C62.042240,80.559105 59.036896,79.928558 56.076656,78.569794 
	C55.598179,74.433884 55.240494,70.720314 54.991741,66.548264 
	C54.690441,53.393696 54.280209,40.697605 53.954781,27.563580 
	C53.993057,25.823236 53.934902,24.521116 53.901909,23.218363 
	C53.701084,15.288457 51.159451,13.696438 43.611343,16.984917 
	C43.104294,17.252132 42.963116,17.527092 42.592590,18.048086 
	C41.810810,20.105555 41.015350,21.991730 41.041576,23.866411 
	C41.158779,32.244259 41.510384,40.618828 41.412918,49.003189 
	C40.083603,49.864449 39.118702,50.717098 38.153801,51.569744 
	C39.366379,52.048286 40.578953,52.526829 41.862461,53.334118 
	C41.889835,54.106968 41.846283,54.551071 41.450638,55.006172 
	C40.455860,55.551094 39.813168,56.085014 39.170479,56.618935 
	C40.054676,57.080723 40.938869,57.542507 41.894653,58.375946 
	C41.955196,60.831348 41.944153,62.915092 41.560158,64.952499 
	C38.381554,64.906158 35.575893,64.906158 32.697392,64.906158 
	C33.196934,64.087463 33.923260,62.897095 35.062885,61.029381 
	C31.059984,61.719791 27.892794,62.266060 24.463259,62.857578 
	C24.281254,61.410931 24.258881,60.264751 23.973320,59.188389 
	C23.535954,57.539825 22.917236,55.939373 22.375496,54.318501 
	C21.205433,55.018509 20.099325,55.874695 18.851807,56.385563 
	C16.361483,57.405369 13.740375,59.198753 11.374902,56.090725 
	C16.309372,48.796612 14.329067,46.963463 4.161344,42.571541 
	C3.071847,44.097725 2.035923,45.548862 1.000000,47.000000 
M69.833977,71.050201 
	C70.224731,71.275017 70.615494,71.499832 71.753700,72.159691 
	C77.668167,72.424622 79.963898,70.457108 79.843407,64.619102 
	C79.667122,56.077320 79.205154,47.541439 78.978706,38.087196 
	C78.862671,34.402046 78.746643,30.716900 78.861084,26.172958 
	C78.754440,24.043053 78.846130,21.879999 78.496933,19.790634 
	C77.900955,16.224705 76.227516,13.610614 71.253082,13.892241 
	C69.774994,15.060634 67.285744,16.027779 67.005753,17.434626 
	C66.115616,21.907116 65.795624,26.539743 65.729149,31.117367 
	C65.650917,36.504906 66.068214,41.899643 66.094612,48.020393 
	C66.262711,49.352203 66.430817,50.684017 66.779175,52.831516 
	C66.796600,54.218857 66.814034,55.606197 66.141251,57.085709 
	C64.895805,57.834053 63.372940,58.350800 62.493290,59.404514 
	C61.797955,60.237450 61.892910,61.730122 61.636906,62.929810 
	C62.751274,62.823986 63.873188,62.766388 64.977097,62.593704 
	C65.608696,62.494900 66.211006,62.208866 67.003479,62.801300 
	C67.781776,65.351021 68.560066,67.900742 69.460136,70.549057 
	C69.460136,70.549057 69.572014,70.658768 69.833977,71.050201 
M60.738937,70.927544 
	C59.799328,71.421967 58.859718,71.916389 57.920105,72.410805 
	C58.331818,72.899490 58.743534,73.388168 59.155247,73.876846 
	C59.727440,73.112068 60.299637,72.347282 60.738937,70.927544 
z"/>
<path fill="#F7F9F8" opacity="1.000000" stroke="none" 
	d="
M1.000000,47.468658 
	C2.035923,45.548862 3.071847,44.097725 4.161344,42.571541 
	C14.329067,46.963463 16.309372,48.796612 11.374902,56.090725 
	C13.740375,59.198753 16.361483,57.405369 18.851807,56.385563 
	C20.099325,55.874695 21.205433,55.018509 22.375496,54.318501 
	C22.917236,55.939373 23.535954,57.539825 23.973320,59.188389 
	C24.258881,60.264751 24.281254,61.410931 24.463259,62.857578 
	C27.892794,62.266060 31.059984,61.719791 35.062885,61.029381 
	C33.923260,62.897095 33.196934,64.087463 32.697392,64.906158 
	C35.575893,64.906158 38.381554,64.906158 41.813881,65.320282 
	C42.963116,71.645096 42.872154,77.693390 44.159458,83.432541 
	C45.869617,91.056915 51.408905,96.238350 57.644390,100.629272 
	C63.270485,104.591072 66.476822,109.704453 66.190605,116.948303 
	C66.118523,118.772697 68.116714,120.678886 69.117882,122.977478 
	C69.048172,124.271645 69.024086,125.135818 69.000000,126.000000 
	C63.645069,126.000000 58.290142,126.000000 52.473038,125.627151 
	C52.135509,123.925766 52.260155,122.597221 52.316490,121.996796 
	C48.851452,121.570145 45.924187,121.209709 42.996922,120.849274 
	C42.805614,120.122284 42.614307,119.395302 42.422997,118.668320 
	C43.174473,118.305176 44.471241,118.062096 44.582253,117.557922 
	C45.042797,115.466339 45.145287,113.295914 45.379223,111.154434 
	C43.756622,111.354599 42.062199,111.324905 40.526951,111.804619 
	C37.671627,112.696808 34.923916,114.639984 32.102852,114.695541 
	C30.105385,114.734879 26.331751,112.391945 26.329052,111.106178 
	C26.315498,104.650803 19.897211,104.665596 17.189905,101.116943 
	C17.037058,100.916588 16.052309,101.350914 15.355604,101.512894 
	C15.802082,103.000275 16.174601,104.241272 16.547121,105.482269 
	C16.299210,105.649223 16.051300,105.816185 15.803390,105.983139 
	C13.131331,103.718979 10.459272,101.454819 8.346858,99.664871 
	C5.635450,101.264778 3.317726,102.632393 1.000001,104.000000 
	C1.000000,85.312439 1.000000,66.624878 1.000000,47.468658 
z"/>
<path fill="#F9FAF9" opacity="1.000000" stroke="none" 
	d="
M104.318092,80.779770 
	C107.110023,81.892273 109.901947,83.004784 113.640205,84.494377 
	C113.159363,85.103851 112.202843,86.177383 111.407364,87.359306 
	C110.389488,88.871674 109.501373,90.471382 108.557327,92.033447 
	C110.108635,92.765800 111.659943,93.498154 113.680588,94.452080 
	C113.586494,95.260414 113.407883,96.794815 113.356407,97.237061 
	C120.844872,99.439735 127.998016,101.102676 134.736603,103.800911 
	C136.699188,104.586769 137.478149,108.328621 138.852127,110.810242 
	C140.642792,110.539597 142.422180,110.270653 144.600769,110.000854 
	C145.000000,115.303238 145.000000,120.606476 145.000000,126.000000 
	C124.645851,126.000000 104.291588,126.000000 83.477173,125.532928 
	C83.675034,118.375763 84.333038,111.685654 85.085945,104.834900 
	C85.180840,104.674248 85.108360,104.308189 85.369164,104.188721 
	C85.799385,103.731247 85.968811,103.393242 86.095261,103.050415 
	C86.052292,103.045601 86.063522,103.131340 86.323936,103.042610 
	C86.777191,102.652977 86.970032,102.352066 87.389694,101.992874 
	C87.899803,101.744186 88.042961,101.478325 88.303329,101.046509 
	C88.748993,100.655899 88.937309,100.355782 89.083832,100.050995 
	C89.042038,100.046326 89.051544,100.129883 89.345673,100.060112 
	C90.108719,99.666351 90.577629,99.342361 91.295822,98.988770 
	C91.713310,98.684486 91.881516,98.409813 92.376366,98.041992 
	C94.473068,95.966614 96.243111,93.984390 98.179543,91.712341 
	C99.565102,89.614662 100.784279,87.806808 102.262665,85.798630 
	C103.120613,83.992119 103.719353,82.385941 104.318092,80.779770 
z"/>
<path fill="#031D29" opacity="1.000000" stroke="none" 
	d="
M84.991051,104.995552 
	C84.333038,111.685654 83.675034,118.375763 83.008514,125.532928 
	C80.299988,126.000000 77.599968,126.000000 74.364914,125.672211 
	C72.274422,124.412102 70.718964,123.479790 69.163506,122.547485 
	C68.116714,120.678886 66.118523,118.772697 66.190605,116.948303 
	C66.476822,109.704453 63.270485,104.591072 57.644390,100.629272 
	C51.408905,96.238350 45.869617,91.056915 44.159458,83.432541 
	C42.872154,77.693390 42.963116,71.645096 42.186829,65.366623 
	C41.944153,62.915092 41.955196,60.831348 41.970551,58.003075 
	C41.917480,56.504093 41.860104,55.749634 41.802727,54.995174 
	C41.846283,54.551071 41.889835,54.106968 41.947701,52.937889 
	C41.900455,51.140133 41.838894,50.067360 41.777336,48.994583 
	C41.510384,40.618828 41.158779,32.244259 41.041576,23.866411 
	C41.015350,21.991730 41.810810,20.105555 42.607895,18.524750 
	C42.994278,25.281868 41.933331,31.969822 43.268040,38.139519 
	C45.077271,46.502716 40.229362,56.418507 48.674274,63.227184 
	C50.544094,64.734718 52.803040,65.759613 54.882809,67.006744 
	C55.240494,70.720314 55.598179,74.433884 56.040966,78.898994 
	C56.967140,81.142586 57.808212,82.634644 58.649281,84.126694 
	C59.112667,84.849007 59.576057,85.571327 59.758118,86.631416 
	C55.439861,88.322296 56.537472,90.773331 58.494316,92.894547 
	C62.030170,96.727394 65.747330,100.403473 69.532425,103.993546 
	C75.667786,109.812805 77.197807,109.874619 84.022774,105.171646 
	C84.269043,105.001945 84.664902,105.049332 84.991051,104.995552 
z"/>
<path fill="#F5F7F6" opacity="1.000000" stroke="none" 
	d="
M1.000001,104.468781 
	C3.317726,102.632393 5.635450,101.264778 8.346858,99.664871 
	C10.459272,101.454819 13.131331,103.718979 15.803390,105.983139 
	C16.051300,105.816185 16.299210,105.649223 16.547121,105.482269 
	C16.174601,104.241272 15.802082,103.000275 15.355604,101.512894 
	C16.052309,101.350914 17.037058,100.916588 17.189905,101.116943 
	C19.897211,104.665596 26.315498,104.650803 26.329052,111.106178 
	C26.331751,112.391945 30.105385,114.734879 32.102852,114.695541 
	C34.923916,114.639984 37.671627,112.696808 40.526951,111.804619 
	C42.062199,111.324905 43.756622,111.354599 45.379223,111.154434 
	C45.145287,113.295914 45.042797,115.466339 44.582253,117.557922 
	C44.471241,118.062096 43.174473,118.305176 42.422997,118.668320 
	C42.614307,119.395302 42.805614,120.122284 42.996922,120.849274 
	C45.924187,121.209709 48.851452,121.570145 52.316490,121.996796 
	C52.260155,122.597221 52.135509,123.925766 52.005432,125.627151 
	C35.102600,126.000000 18.205196,126.000000 1.000000,126.000000 
	C1.000000,118.982185 1.000000,111.959877 1.000001,104.468781 
z"/>
<path fill="#F9FAF9" opacity="1.000000" stroke="none" 
	d="
M145.000000,107.571533 
	C139.635178,107.531181 138.990585,106.142525 140.707275,98.486046 
	C141.938873,99.667625 143.110611,100.791779 144.641174,101.957970 
	C145.000000,103.714355 145.000000,105.428719 145.000000,107.571533 
z"/>
<path fill="#F1F4F4" opacity="1.000000" stroke="none" 
	d="
M69.117882,122.977478 
	C70.718964,123.479790 72.274422,124.412102 73.914940,125.672211 
	C72.611107,126.000000 71.222221,126.000000 69.416664,126.000000 
	C69.024086,125.135818 69.048172,124.271645 69.117882,122.977478 
z"/>
<path fill="#012130" opacity="1.000000" stroke="none" 
	d="
M85.085945,104.834900 
	C84.664902,105.049332 84.269043,105.001945 84.022774,105.171646 
	C77.197807,109.874619 75.667786,109.812805 69.532425,103.993546 
	C65.747330,100.403473 62.030170,96.727394 58.494316,92.894547 
	C56.537472,90.773331 55.439861,88.322296 59.878975,86.934166 
	C60.599590,86.868469 60.847973,86.985931 61.067520,87.839752 
	C63.991169,92.680191 68.929710,94.322784 72.116730,92.089302 
	C72.439064,91.925766 72.748260,91.947884 73.655121,92.492477 
	C78.890236,92.750229 83.982132,93.697227 85.842987,87.553772 
	C85.842987,87.553772 85.884682,87.201889 86.168922,86.985367 
	C86.848747,86.468735 87.244331,86.168625 88.022545,85.861847 
	C88.896080,84.850174 89.386986,83.845161 89.896225,82.862106 
	C89.914566,82.884064 89.860184,82.863228 90.215332,82.852188 
	C91.712440,80.891418 92.854393,78.941681 94.311790,77.158630 
	C95.595253,79.910774 96.563278,82.496223 97.874733,85.998955 
	C98.437645,85.998955 100.220551,85.998955 102.003464,85.998955 
	C100.784279,87.806808 99.565102,89.614662 97.832275,91.745163 
	C95.562325,94.090256 93.806023,96.112701 92.049713,98.135139 
	C91.881516,98.409813 91.713310,98.684486 90.986961,99.011711 
	C89.969727,99.419464 89.510635,99.774673 89.051544,100.129883 
	C89.051544,100.129883 89.042038,100.046326 88.836304,100.154526 
	C88.435707,100.554153 88.240845,100.845581 88.045982,101.137016 
	C88.042961,101.478325 87.899803,101.744186 87.138184,102.093765 
	C86.461075,102.545746 86.262299,102.838547 86.063522,103.131340 
	C86.063522,103.131340 86.052292,103.045601 85.837708,103.177628 
	C85.451530,103.642494 85.279953,103.975342 85.108368,104.308197 
	C85.108360,104.308189 85.180840,104.674248 85.085945,104.834900 
z"/>
<path fill="#032433" opacity="1.000000" stroke="none" 
	d="
M54.991741,66.548264 
	C52.803040,65.759613 50.544094,64.734718 48.674274,63.227184 
	C40.229362,56.418507 45.077271,46.502716 43.268040,38.139519 
	C41.933331,31.969822 42.994278,25.281868 42.972511,18.348166 
	C42.963116,17.527092 43.104294,17.252132 43.897243,17.186832 
	C47.381248,21.048710 48.246326,26.632854 53.869976,28.001511 
	C54.280209,40.697605 54.690441,53.393696 54.991741,66.548264 
z"/>
<path fill="#042634" opacity="1.000000" stroke="none" 
	d="
M78.864944,39.003040 
	C79.205154,47.541439 79.667122,56.077320 79.843407,64.619102 
	C79.963898,70.457108 77.668167,72.424622 71.328674,71.661728 
	C70.459763,70.995438 70.015884,70.827103 69.572014,70.658768 
	C69.572014,70.658768 69.460136,70.549057 69.554932,70.079544 
	C69.102905,56.403320 68.556084,43.196609 68.354095,30.050917 
	C71.343056,33.926933 73.369843,38.447811 78.864944,39.003040 
z"/>
<path fill="#022633" opacity="1.000000" stroke="none" 
	d="
M102.262665,85.798630 
	C100.220551,85.998955 98.437645,85.998955 97.874733,85.998955 
	C96.563278,82.496223 95.595253,79.910774 94.312500,76.690926 
	C93.678894,66.357605 93.360039,56.658684 93.378288,47.023834 
	C97.168381,50.072628 100.621353,53.057358 104.074333,56.042084 
	C104.155037,63.981823 104.235733,71.921562 104.317261,80.320526 
	C103.719353,82.385941 103.120613,83.992119 102.262665,85.798630 
z"/>
<path fill="#0A303C" opacity="1.000000" stroke="none" 
	d="
M104.208710,55.659637 
	C100.621353,53.057358 97.168381,50.072628 93.368317,46.560463 
	C93.012611,40.355289 93.003990,34.677559 92.997681,28.538994 
	C93.017342,24.370035 93.034698,20.661915 93.425781,17.011858 
	C96.844421,17.714849 99.889320,18.359777 102.934219,19.004704 
	C103.226967,23.700457 103.519714,28.396212 103.346207,33.544823 
	C101.082870,33.768806 99.285789,33.539928 95.931511,33.112724 
	C99.858040,36.718460 98.024010,42.560539 103.856148,42.999630 
	C104.018463,47.092152 104.180779,51.184673 104.208710,55.659637 
z"/>
<path fill="#042A38" opacity="1.000000" stroke="none" 
	d="
M78.921829,38.545120 
	C73.369843,38.447811 71.343056,33.926933 68.349770,29.610516 
	C68.014648,27.049223 68.028664,24.989351 68.413734,22.956812 
	C72.066727,24.333347 75.348671,25.682549 78.630608,27.031752 
	C78.746643,30.716900 78.862671,34.402046 78.921829,38.545120 
z"/>
<path fill="#142830" opacity="1.000000" stroke="none" 
	d="
M68.042679,22.929482 
	C68.028664,24.989351 68.014648,27.049223 68.004944,29.549496 
	C68.556084,43.196609 69.102905,56.403320 69.494034,70.030243 
	C68.560066,67.900742 67.781776,65.351021 66.981277,61.989479 
	C66.916534,59.782951 66.874001,58.388245 66.831467,56.993538 
	C66.814034,55.606197 66.796600,54.218857 66.792419,52.028294 
	C66.627319,49.913799 66.448975,48.602531 66.270630,47.291260 
	C66.068214,41.899643 65.650917,36.504906 65.729149,31.117367 
	C65.795624,26.539743 66.115616,21.907116 67.005753,17.434626 
	C67.285744,16.027779 69.774994,15.060634 71.484261,14.261280 
	C70.491188,17.396708 69.266937,20.163095 68.042679,22.929482 
z"/>
<path fill="#0E222C" opacity="1.000000" stroke="none" 
	d="
M92.995377,28.999828 
	C93.003990,34.677559 93.012611,40.355289 93.031204,46.496391 
	C93.360039,56.658684 93.678894,66.357605 93.997055,76.524231 
	C92.854393,78.941681 91.712440,80.891418 90.246162,82.545013 
	C89.978729,81.844322 90.035614,81.439781 90.092499,81.035240 
	C90.708145,74.290092 91.371117,67.548721 91.909790,60.797436 
	C92.065742,58.842766 91.865097,56.859646 91.790726,54.133381 
	C91.582100,53.031315 91.410675,52.685440 91.239250,52.339561 
	C91.134033,44.538769 91.028824,36.737976 91.250732,28.584587 
	C92.050362,28.487936 92.522873,28.743881 92.995377,28.999828 
z"/>
<path fill="#183946" opacity="1.000000" stroke="none" 
	d="
M68.413742,22.956814 
	C69.266937,20.163095 70.491188,17.396708 71.857178,14.314194 
	C76.227516,13.610614 77.900955,16.224705 78.496933,19.790634 
	C78.846130,21.879999 78.754440,24.043053 78.745850,26.602356 
	C75.348671,25.682549 72.066727,24.333347 68.413742,22.956814 
z"/>
<path fill="#042B3A" opacity="1.000000" stroke="none" 
	d="
M53.954781,27.563580 
	C48.246326,26.632854 47.381248,21.048710 44.127853,17.125122 
	C51.159451,13.696438 53.701084,15.288457 53.901909,23.218363 
	C53.934902,24.521116 53.993057,25.823236 53.954781,27.563580 
z"/>
<path fill="#082F3C" opacity="1.000000" stroke="none" 
	d="
M103.912094,42.551208 
	C98.024010,42.560539 99.858040,36.718460 95.931511,33.112724 
	C99.285789,33.539928 101.082870,33.768806 103.249939,33.997276 
	C103.735954,36.698845 103.851997,39.400818 103.912094,42.551208 
z"/>
<path fill="#183B47" opacity="1.000000" stroke="none" 
	d="
M103.025002,18.635885 
	C99.889320,18.359777 96.844421,17.714849 93.418045,16.662422 
	C93.034386,15.787621 93.032188,15.320319 93.029999,14.853019 
	C97.778709,11.651216 100.772514,12.664623 103.025002,18.635885 
z"/>
<path fill="#F5F6F6" opacity="1.000000" stroke="none" 
	d="
M58.980476,84.003830 
	C57.808212,82.634644 56.967140,81.142586 56.161758,79.321335 
	C59.036896,79.928558 62.042240,80.559105 64.628746,81.961914 
	C65.575882,82.475594 65.529861,84.820442 65.936569,86.328720 
	C63.268471,85.342918 61.290070,84.611946 58.980476,84.003830 
z"/>
<path fill="#F5F6F6" opacity="1.000000" stroke="none" 
	d="
M66.486359,57.039623 
	C66.874001,58.388245 66.916534,59.782951 66.892792,61.592392 
	C66.211006,62.208866 65.608696,62.494900 64.977097,62.593704 
	C63.873188,62.766388 62.751274,62.823986 61.636902,62.929810 
	C61.892910,61.730122 61.797955,60.237450 62.493290,59.404514 
	C63.372940,58.350800 64.895805,57.834053 66.486359,57.039623 
z"/>
<path fill="#0E2832" opacity="1.000000" stroke="none" 
	d="
M92.691193,14.997927 
	C93.032188,15.320319 93.034386,15.787621 93.044319,16.604357 
	C93.034698,20.661915 93.017342,24.370035 92.997681,28.538992 
	C92.522873,28.743881 92.050362,28.487936 91.331451,28.122776 
	C91.507492,23.723322 91.929939,19.433077 92.691193,14.997927 
z"/>
<path fill="#031D29" opacity="1.000000" stroke="none" 
	d="
M71.898422,91.976654 
	C68.929710,94.322784 63.991169,92.680191 61.112137,88.050133 
	C62.478214,88.459427 63.840889,89.246552 65.788712,90.313278 
	C67.556740,90.795540 68.739616,90.998199 69.922501,91.200859 
	C70.508369,91.421906 71.094238,91.642952 71.898422,91.976654 
z"/>
<path fill="#0E222C" opacity="1.000000" stroke="none" 
	d="
M85.488083,87.668884 
	C83.982132,93.697227 78.890236,92.750229 73.822220,92.668762 
	C77.296745,90.933479 81.214958,89.358734 85.488083,87.668884 
z"/>
<path fill="#F7F9F8" opacity="1.000000" stroke="none" 
	d="
M41.412918,49.003189 
	C41.838894,50.067360 41.900455,51.140133 41.876770,52.609138 
	C40.578953,52.526829 39.366379,52.048286 38.153801,51.569744 
	C39.118702,50.717098 40.083603,49.864449 41.412918,49.003189 
z"/>
<path fill="#F5F6F6" opacity="1.000000" stroke="none" 
	d="
M89.711945,81.032646 
	C90.035614,81.439781 89.978729,81.844322 89.891006,82.556046 
	C89.860184,82.863228 89.914566,82.884064 89.622269,83.028473 
	C88.766617,84.071426 88.203262,84.969971 87.639908,85.868515 
	C87.244331,86.168625 86.848747,86.468735 86.203896,86.811684 
	C87.080215,84.913033 88.205795,82.971542 89.711945,81.032646 
z"/>
<path fill="#F5F6F6" opacity="1.000000" stroke="none" 
	d="
M69.937462,90.830109 
	C68.739616,90.998199 67.556740,90.795540 66.128540,90.324959 
	C67.328033,89.296959 69.078156,85.448776 69.937462,90.830109 
z"/>
<path fill="#F5F6F6" opacity="1.000000" stroke="none" 
	d="
M60.805382,71.255020 
	C60.299637,72.347282 59.727440,73.112068 59.155247,73.876846 
	C58.743534,73.388168 58.331818,72.899490 57.920105,72.410805 
	C58.859718,71.916389 59.799328,71.421967 60.805382,71.255020 
z"/>
<path fill="#F7F9F8" opacity="1.000000" stroke="none" 
	d="
M41.450638,55.006172 
	C41.860104,55.749634 41.917480,56.504093 41.898964,57.631424 
	C40.938869,57.542507 40.054676,57.080723 39.170479,56.618935 
	C39.813168,56.085014 40.455860,55.551094 41.450638,55.006172 
z"/>
<path fill="#F5F6F6" opacity="1.000000" stroke="none" 
	d="
M66.182617,47.655827 
	C66.448975,48.602531 66.627319,49.913799 66.702293,51.620449 
	C66.430817,50.684017 66.262711,49.352203 66.182617,47.655827 
z"/>
<path fill="#142830" opacity="1.000000" stroke="none" 
	d="
M69.702995,70.854485 
	C70.015884,70.827103 70.459763,70.995438 70.954941,71.444214 
	C70.615494,71.499832 70.224731,71.275017 69.702995,70.854485 
z"/>
<path fill="#F5F6F6" opacity="1.000000" stroke="none" 
	d="
M91.198608,52.631371 
	C91.410675,52.685440 91.582100,53.031315 91.694962,53.671059 
	C91.476913,53.617676 91.317444,53.270424 91.198608,52.631371 
z"/>
<path fill="#031D29" opacity="1.000000" stroke="none" 
	d="
M92.376373,98.041992 
	C93.806023,96.112701 95.562325,94.090256 97.665894,92.034988 
	C96.243111,93.984390 94.473068,95.966614 92.376373,98.041992 
z"/>
<path fill="#031D29" opacity="1.000000" stroke="none" 
	d="
M89.345673,100.060104 
	C89.510635,99.774673 89.969727,99.419464 90.737679,99.041313 
	C90.577629,99.342361 90.108719,99.666351 89.345673,100.060104 
z"/>
<path fill="#031D29" opacity="1.000000" stroke="none" 
	d="
M88.303329,101.046509 
	C88.240845,100.845581 88.435707,100.554153 88.878098,100.159195 
	C88.937309,100.355782 88.748993,100.655899 88.303329,101.046509 
z"/>
<path fill="#031D29" opacity="1.000000" stroke="none" 
	d="
M86.323936,103.042610 
	C86.262299,102.838547 86.461075,102.545746 86.911362,102.152054 
	C86.970032,102.352066 86.777191,102.652977 86.323936,103.042610 
z"/>
<path fill="#031D29" opacity="1.000000" stroke="none" 
	d="
M85.369171,104.188721 
	C85.279953,103.975342 85.451530,103.642494 85.880676,103.182442 
	C85.968811,103.393242 85.799385,103.731247 85.369171,104.188721 
z"/>
<path fill="#0E222C" opacity="1.000000" stroke="none" 
	d="
M88.022545,85.861847 
	C88.203262,84.969971 88.766617,84.071426 89.603928,83.006516 
	C89.386986,83.845161 88.896080,84.850174 88.022545,85.861847 
z"/>
</svg>